<?xml version="1.0" encoding="utf-8"?>
<!-- Generator: Adobe Illustrator 26.0.0, SVG Export Plug-In . SVG Version: 6.00 Build 0)  -->
<svg version="1.1" id="Livello_1" xmlns="http://www.w3.org/2000/svg" xmlns:xlink="http://www.w3.org/1999/xlink" x="0px" y="0px"
	 viewBox="0 0 3066.8 1068" style="enable-background:new 0 0 3066.8 1068;" xml:space="preserve">
<style type="text/css">
	.st0{fill-rule:evenodd;clip-rule:evenodd;fill:#D2B758;}
</style>
<path class="st0" d="M1110,732.1c25.4-19.4,45-31.6,63.5-59.3c23.5-35.2,44.2-83,36.1-97.2c-1.7-3-5.5-7-10.8-5.8
	c-44,15-66,99-80.4,133.2C1115.6,712.7,1112.8,722.4,1110,732.1 M914.5,598c23.5-29.8,43.4-59.2,63.4-91.5
	c35.3-60.5,70.6-117.3,99.8-180.9c13.1-35,23.6-66.4,31.2-102.9c1.1-18.4,3.6-33.5-2.6-51.1c-4.6-13.2-16.3-16.2-28.7-14.4
	c-17.9,2.6-24.9,8.9-40.4,22.9c-3.7,4.4-7.2,8.8-10.6,13c-32.7,41.1-52.6,75-75.7,127.4c0,0-20.8,40.5-18.7,48.9
	C922.2,404.5,902.6,541.2,914.5,598 M232.1,761.7c7.3-8,14.7-17.2,22-25.2c19.3-20,38.1-40.2,56.6-61c22.9-26.3,41.3-52.5,60.4-81.7
	c8.1-15.2,14-30.8,19.5-47.2c1-4.6,2.1-9.2,3.1-13.8c-0.8-3.1-1.7-6.3-2.5-9.4l-6.9-5h-6.9c-19.4,5-25.7,8.8-40.9,22l-17,16.3
	c-19.7,24.8-33.4,49.9-48.4,78c-10,22.5-18.5,43.6-25.7,67.2C237.3,724.2,232.1,738.3,232.1,761.7 M1471.1,299.8
	c-1.7,10.6-2.1,19.9-3.8,30.5c-9.1,28.1-18.4,56.1-28,84c-11.6,39.1-19.4,76.9-26.7,117.1c-8.9,67.5-16.4,134.7-22.9,202.4
	c-3.4,34.8-6.8,69.6-10.2,104.4l-5.1,38.2c-0.3,13.7,2.2,17.8,7.6,12.4c15.3-15.3,29.6-33.3,44.6-49.3c27-42.5,44.4-79,62.4-126
	c20.3-57,38.5-113.9,56-171.9c13.2-80.6,26.3-161.3,39.5-241.9C1547.1,299.4,1508.4,300.2,1471.1,299.8 M2344,678l13.4-19.6
	c26.1-35.4,58.1-62.3,93.7-87.4l14.3-7.1l16.9-11.6l9.9-5.3c8.2-4.4,12.1-6.4,21.4-6.9c22.6-1.2,43.1,0.8,50.9,25.6
	c-1.5,11-3,22-4.5,33c-15.2,49.7-35.4,88.9-61.6,133.8c-34.3,55.4-66.9,139.4-137.3,151.7c-16.1-0.8-30.1-3.8-40.7-13.2
	c-13.9-12.3-14.2-23.6-12.9-40.7c2.3-28.5,9-55.5,20.6-83.5c3.9-9.5,7.7-19,11.6-28.5c1.5-5.7,3-11.3,4.5-17l3.6-11.6L2344,678
	 M0,919.2c10.1-0.4,20.2-3.6,30.2-4c16.7-7.9,32.2-16.3,48.2-25.8c23.6-16.9,46-34.1,68.3-52.6c20.9-16.8,40.5-35.3,58.6-55.1
	c4.4-30.7,9.5-72.2,21.1-106c23.4-59.3,60.6-137.5,114.3-167.8c15.2-8.6,34.5-12.7,52.1-8.9c15.4,3.4,20.9,15.4,21.2,27.1
	c1.7,78-83.1,158.4-136.6,212.2c-15.7,16.4-34.3,32.8-50,49.3c-5.1,27.8-8.1,52.4-9,80.6c-0.5,19-0.5,32.9,1.7,48.3
	c7,49.5,43.4,35.7,77.8,17.8l29.1-19c24.1-21.6,48-43.6,70.2-67.2c22.6-21,41.2-42.1,61.9-64.9c21-21,42.1-41.4,63.8-61.6
	c21.3-15.8,38.5-27.4,62.7-38.1c7-14.9,14.5-29.2,22.4-43.7c29.1-44.4,62.3-79.3,91.9-113c9.7-7.5,20.5-13.9,30.2-21.4
	c24-11.5,34.9-12.4,61.6-12.4l17.9,13.4c6.1,18.3,5,32.2,5.9,51.4c-1.2,7.2-2.4,13.9-3.7,20.5c-9.4,47-33,91.3-72.8,119.5
	c-17.8,6.6-28,7.8-47,7.8c-23.7-7.2-26-8.2-39.2-29.1c11.8,7.1,24.1,13.1,37,17.9c34.7,0,50.7-11.8,70.5-42.5
	c8-16.4,15.1-33.2,21.3-50.4c3.5-16.8,6.8-33.6,10.1-50.4c0.1-11.2-0.6-22.5-2.2-33.6l-6.7-4.5c-36.8,6-65.3,29-91.4,60.6
	c-37.3,44.2-62.6,80.2-83,133.1c-12.7,38.1-12.8,77-11.4,116.5c9.5,44.7,40.2,50.3,73.6,28.3l39.5-26l39.2-37l39.2-42.5l41.4-45.9
	l33.6-38.1l16.8-19c-0.6-23.6-0.8-45.9,1.1-69.4c0-23.7,0.7-46.9,2.2-70.5c2.7-28.6,5.8-56.7,10.1-85.1
	c10.2-68.7,35-133.2,68.3-193.7c9-12.3,17.9-24.7,26.9-37c19.9-23.4,34.2-37,57-52c24.9-16.3,54.3-19.1,77.4,1
	c5.4,4.8,10,10.5,13.5,16.8c11.3,19.7,11,35.7,10.4,58c-1.2,46.2-16.2,81.3-32,124.5c-32,62-68.5,120.9-99.6,183.1
	c-17.8,29.5-35.8,57.3-56,85.1l-38,53.8c0,15.3-3.1,31.6-3.1,46.9c1.5,13.1,3,26.1,4.5,39.2l10.1,31.3c4.8,5.6,12.8,10.2,17.7,15.8
	l24.6,12.3l21.3-3.3l34.7-12.3l25.8-16.8c4.5-2.6,10.8-5.2,15.2-7.8c13.1-63.6,34.5-118.6,67.2-176.4c17.2-23.5,23.4-30.2,47.9-46
	c20.9-6.3,33.5-8.5,46.6-0.4c19.3,12,20.4,34.7,18.8,55.7c-2.1,27.1-12.6,49.5-28.4,80.2c-34.3,58.9-74.4,92.6-128.1,131.7
	c-6.7,24.6-13.5,50.6-9.8,72.5c10.6,29.5,27.4,15.3,50.2,8.1l21.3-13.4c18.1-21,36.4-40.8,56-60.5c44.7-53.4,66-97,86.2-147.8
	c22.4-49.4,44-98.8,64.9-148.9c13.6-37,27.1-72.8,36.9-110.8l11.1-41.4l11.2-44.8l4.5-15.7h-37c-37.5-2-74.9-6.2-112-12.3
	c-38-8-73.5-14.5-107.5-32.5c50.3-13.3,95-22.7,146.7-28c43.8-3.1,87-4.9,131-5.6c7.1-29.1,14.2-58.2,21.3-87.3l14.6-70.5
	c3.9-16.5,5.6-49.5,19.8-60.3c14.6-11.1,22.8-11.4,34.8-0.1c7,6.6,10.2,9,7.8,22.3c-7.7,44.7-18.1,83.6-31.2,124.3l-23.5,72.8
	l98.5,1.1l10.1-60.5c3-23.5,6-47,9-70.5c0.4-15-4.1-38.1,6.7-49.4c13.5-14,30.1-14.4,43.2,0.5c6.6,7.5,6.2,10.4,4.8,20
	c-1.6,11.5-3.9,23-4.8,34.4c-4.1,18.3-8.2,36.6-12.3,54.9l-7.8,47c0,7.8-0.9,15.7-0.9,23.5h285.7l422.2,11.2l445.6,13.4l175.8,10.1
	l10.1,2.2l1.1,11.2l-9,2.2l-184.7,4.5l-685.2,7.8l-471.4,7.8c-1.1,22.8-4,44.6-5.2,67.4l-7.8,71.7c-3,19-6,38.1-9,57.1
	c-3,13.1-6,26.1-9,39.2c-1.9,21.6-1.9,44.2-3.8,65.8c-2,84.2-3.8,167.8-1.1,251.9c1.5,8.2,3,16.4,4.5,24.6l3.4,6.7l7.8-2.2l28-26.9
	c0,0,13.4-7.8,34.7-48.2s38.1-81.7,38.1-81.7l35.8-86.2l24.6-47l23.5-20.2h15.7l13.4,7.8l11.2,21.3c-2.6,14.9-10.3,32.4-12.9,47.3
	c-10.7,44.7-14.2,84-19.5,129.6c-1.9,15.3-3.7,30.6-5.6,45.9c1.5,4.1,3,8.2,4.5,12.3l10.1,1.1c29.7-16.8,45.2-31.7,68.3-57.1
	c17.2-22.9,32.7-41.1,53.8-60.5l11.2-15.7c18.6-42.6,38.6-84.4,67.2-120.9c22.9-25.3,39.1-39.8,68.3-57.1
	c21.2-8.5,37.6-9.3,59.3-2.2l18,15.6c12.9,18.1,16.9,24,19,45.9c0.8,21.4-0.3,37.3-4.5,58.2l-6.7,23.5c-8.5,15.9-18.6,31-30.2,44.8
	c-17.9,12.6-24.9,15.6-46.8,17.5c-16.5-4.3-20.9-6.5-34.3-17l-6.7-20.2l10.1,14.6c16.2,9,22.3,8.9,40.8,10.8l14.6-5.6
	c15.6-18.7,22.1-33.3,31.4-56c5.6-25.6,7.6-44.4,6.7-70.5c-6.6-21.7-5.2-24.6-25.8-33.6c-18-3.6-24-0.8-41.4,5.6
	c-23.4,13-32.9,27.8-49.3,49.3c-7.8,13.4-15.7,26.9-23.5,40.3l-5.6,14.5l12.3-11.2l-17.9,25.8l-11.2,20.2
	c-4.1,12.7-8.2,25.4-12.3,38.1c-9.4,42-21.2,89.5-19.7,132.8c1,28.2,10.2,40.8,36.9,50.8l6.3,2.3l38.1-1.1
	c42.7-19.4,67.6-38.4,103-69.4c21.6-21.7,43.3-43.3,64.9-64.9l53.7-68.3c14.2-17.9,27.1-40.9,41.3-58.8l19-11.2l16.8,5.6
	c2.6,1.9,0.9,0.7,3.5,2.5c4.5-7.8,10.7-15.2,15.2-23c35.8-38.7,71.6-72.5,116.7-94.2c23.9-11.4,43.8-18.5,70.1-13.5
	c26.6,5.1,38.6,14.4,43.9,30.9c7.9,24.5,0.1,49.8-4,74.3c-10.2,37.5-20.4,66.9-41.4,99.7v12.3l-11.2,25.8c-4,29-13.4,67.5-9.3,96.6
	c11,30.3,14,29.6,46.2,31c33.1-8.7,64.4-45.7,87.3-70.5l30.2-42.5c25.4-38.2,52.3-73.7,80.6-109.7l53.8-63.8l41.4-45.9l59.3-56
	l62.7-51.5l-47,58.2l-56,64.9l-39.2,53.7l-49.2,57.2c-34.6,53.2-75.8,99.9-109.7,153.4c-16.5,22.2-29.2,40.6-51.6,57
	c-40.8,29.8-88.4,46.7-125.3,1.9c-9-13.9-11.6-22.2-12.5-38.9c-1.1-20.6,2-38.2,6.5-56.9c-5.2,11.6-14.3,21.9-19.5,33.4
	c-7.4,10.6-15.2,22.6-24.8,34.4c-25.6,31.4-54.6,47.1-97.4,52c-31.2-6-39.5-10.8-63.8-31.3c-15.6-38.5-18.6-53.8-15.7-95.2
	c4.9-18.3,9.7-36.6,14.6-54.9l-16.8,24.6c-34.4,42.9-71.5,82.5-113.1,118.7c-30.6,28.3-55.7,47.7-91.8,68.3
	c-31.9,13-55.9,17.4-98.5,10.1c-18.2-7.1-28.4-14.5-43.7-26.9c-12.2-24.5-14.5-42-17.9-69.4c1.5-12,3-23.9,4.5-35.8
	c3.7-14.2,7.5-28.4,11.2-42.5l-26.9,34.7c-15.9,18.3-27.9,29.3-48.2,42.5c-19.6,8.6-29.1,12.3-50.4,12.3l-22.4-4.5l-11.2-14.5
	c-1.9-7.1-3.7-14.2-5.6-21.3c0.8-18.7,1.5-37.3,2.2-56c-5.6,13.8-13.7,27.6-19.3,41.4c-17.1,33-33.9,60.1-55.7,85.7
	c-26.6,31.3-45.5,43.5-83.4,57.2c-20.1,0.6-40,4.2-57-9.3c-27.2-21.8-22.6-50.4-22.7-82.7c0-38,2.7-75.5,5.3-115
	c-22.1,61-42.8,111-87.1,160.5c-27.7,30.9-66,64.7-110.4,43.5c-6.4-2.9-11.8-7.5-15.8-13.2c-19.6-27.8-13-44.7-7.7-77.5
	c9.7-60.4,25.2-116.6,41.6-178.4c4.8-26,7.7-52.9,12.5-78.9l-19,45.9c-5.6,14.6-11.2,29.1-16.8,43.7c-7.5,18.7-14.9,37.3-22.4,56
	c-23.1,44-49.8,77.8-82.8,115.3c-33.7,34.8-59.1,57.9-109.7,66.1c-26.7-1.8-34.2-1.8-56-17c-16.3-22.6-11.6-35.3-7.8-63.6l4.5-25.8
	l-21.3,10.1l-23.5,7.8l-28,2.2l-41.4-10.2l-24.6-15.7c-6.7-7.5-13.4-14.9-20.2-22.4l-12.3-42.5l-3.4-38.1
	c-0.4-6.7-0.7-13.4-1.1-20.2c-31.1,33.9-68,75.2-103,111.8c-29.1,30.4-67.1,55.6-99.7,74.1c-23.8,5.3-45,12.6-69.4,5.6
	c-27.7-7.9-36.3-23.9-44.8-49.3c-2.7-27.6-1.5-48.6,2.2-76.1l10.1-43.7l6.7-26.9l-25.8,17.9c-9.7,9.7-19.4,19.4-29.1,29.1
	c-17.9,19.3-34.3,38.4-50.4,59.3c-20.1,22.5-40.2,44.9-60.5,67.2c-22.3,23.7-44.4,48.7-71.7,66.9c-20.9,16.7-45.5,28.4-82.4,37
	c-46,3.7-65.5-19.2-69-62.6c-1.5-18.6,0.7-35.8,1.5-49.1c3.5-21.6,4.5-38.7,9.4-60c-9.1,10.4-14.6,16.3-24.3,25.9
	c-25.2,25-54.1,43.2-84.9,60.9C56,921.3,26.1,925.2,0,919.2 M1859.4,392c14.5,0,26.2,11.7,26.2,26.2s-11.7,26.2-26.2,26.2
	s-26.2-11.7-26.2-26.2l0,0C1833.2,403.7,1844.9,392,1859.4,392"/>
</svg>
